<svg width="43" height="44" viewBox="0 0 43 44" fill="none" xmlns="http://www.w3.org/2000/svg">
<path d="M42.327 38.4165H42.3579C42.2272 29.9449 42.2679 21.3854 42.0843 12.9196C41.2075 8.99252 36.2878 8.95582 33.1171 9.52182C33.1845 9.54682 33.2951 9.52992 33.3483 9.56512C33.2815 9.62812 33.1473 9.63372 33.327 9.66282C33.2306 9.67102 33.1372 9.67962 33.0426 9.68732C32.9302 9.50562 32.8228 9.32042 32.7152 9.13552C35.4721 6.83952 33.8794 1.69712 30.1001 2.42782C30.1269 2.45412 30.1733 2.43972 30.1929 2.47582C30.1747 2.51892 30.1052 2.54712 30.1783 2.57292C30.107 2.59222 30.0306 2.57882 29.9682 2.62562C33.3866 3.25472 34.217 7.83782 30.5354 8.75772C30.3719 8.64572 30.1584 8.75052 29.996 8.80712C29.9749 8.79702 29.8999 8.83672 29.8924 8.82382C29.8829 8.82152 29.8744 8.83692 29.8652 8.84262C25.8436 8.47802 26.5367 3.24742 29.9682 2.49522C26.3618 0.738023 24.1341 6.81562 26.8795 9.01162C26.8186 9.15252 26.764 9.32962 26.6868 9.46562C20.6719 8.38352 14.4109 8.85882 8.31375 8.71012C8.94665 6.42212 8.69855 3.94582 8.65605 1.59432C8.63375 1.11522 8.15615 0.909923 7.73035 0.990623C5.13745 0.922123 1.83425 2.07382 1.29865 4.92812C0.684653 5.25952 1.16385 7.12022 1.05355 7.82712C1.10435 12.9231 1.11525 18.2201 1.16565 23.3158C1.36955 29.2117 -0.403747 35.0083 7.95385 34.5066C7.96655 36.113 7.96785 38.0936 7.99125 39.6886C7.95735 41.0282 7.95475 41.1983 9.36305 41.1157C15.466 41.0762 24.6902 40.8916 29.1811 40.5054C29.1854 40.4916 29.0432 40.4933 29.0051 40.4878C29.2508 40.4793 29.5588 40.4868 29.7852 40.4659C28.3025 40.3473 26.8016 40.3784 25.323 40.2968C25.4753 40.0237 25.3504 39.6935 25.2591 39.4256C25.2485 38.9384 24.987 38.5019 24.4479 38.5454C24.4004 38.5099 24.2937 38.5346 24.2472 38.5584C24.2242 38.5798 24.2631 38.5844 24.2323 38.6078C24.2385 38.6133 24.1612 38.6166 24.1766 38.6232C24.2312 38.6589 24.1785 38.6802 24.1535 38.7097C24.1268 38.736 24.1253 38.766 24.1068 38.7907C24.0864 38.7985 24.0354 38.8073 24.0564 38.8168C23.9573 39.283 23.8031 39.8505 24.0216 40.2873C22.6753 40.2402 21.3398 40.1784 19.9988 40.1572C20.0945 39.9201 19.9335 39.6888 19.9107 39.4599C19.8792 39.4346 19.8941 39.4079 19.8681 39.379C19.8958 38.8943 19.5659 38.5098 19.075 38.5455C19.0458 38.5122 18.8401 38.5299 18.8745 38.5856C18.881 38.6155 18.8049 38.6123 18.8037 38.6233C18.8792 38.6745 18.7441 38.705 18.7519 38.7656C18.7378 38.774 18.7386 38.7824 18.734 38.7907C18.7137 38.7982 18.6627 38.8076 18.6836 38.8168C18.5688 39.2484 18.5102 39.6584 18.5721 40.1096C17.4528 40.0031 15.7994 40.0449 14.6591 40.0093C14.4848 39.3928 14.5645 38.5047 13.7022 38.5454C13.673 38.5122 13.4673 38.5297 13.5017 38.5855C13.5082 38.6153 13.4321 38.6123 13.4309 38.6232C13.5064 38.6744 13.3713 38.7048 13.3791 38.7655C13.365 38.7739 13.3658 38.7823 13.3612 38.7906C13.3409 38.798 13.2898 38.8076 13.3108 38.8167C13.2255 39.2177 13.1134 39.5763 13.1983 39.9899C11.8557 39.9735 10.5125 39.9546 9.16955 39.9502C9.18245 38.5042 9.17265 37.0574 9.18935 35.6114C9.25985 35.6634 9.33305 35.6567 9.40425 35.6304C9.41965 35.6395 9.43495 35.6012 9.45045 35.626C9.60195 35.6246 9.77815 35.6143 9.92815 35.585C9.95105 35.5573 9.95765 35.5555 9.98505 35.5422C9.99625 35.5086 10.0048 35.4822 10.0164 35.4843C10.0211 35.4596 10.026 35.4649 10.0308 35.4641C10.3479 35.2013 10.228 34.6973 10.0831 34.3241C9.86725 33.9952 9.47555 34.2313 9.19765 34.3129C9.21925 32.8607 9.22765 31.4043 9.23635 29.9505C9.29385 29.9885 9.34995 29.9565 9.40415 29.9456C9.41955 29.9547 9.43485 29.9164 9.45035 29.9412C9.60985 29.9216 9.83515 29.9649 9.95965 29.8653C9.99705 29.8783 9.99545 29.7878 10.0148 29.8027C10.024 29.7591 10.0365 29.7989 10.0437 29.7509C10.0489 29.7271 10.0711 29.7213 10.089 29.7153C10.1206 29.7045 10.1193 29.645 10.1683 29.6472C10.3555 28.9274 10.0934 28.1445 9.24825 28.6135C9.26045 27.572 9.27885 25.3399 9.28605 24.2849C9.32875 24.2917 9.36615 24.2636 9.40415 24.2609C9.41955 24.27 9.43485 24.2317 9.45035 24.2565C9.52535 24.2807 9.60695 24.2375 9.68535 24.2395C9.79435 24.2219 9.89165 24.2677 9.96745 24.1794C9.99585 24.1909 9.99835 24.0972 10.0149 24.1179C10.2814 23.8829 10.2663 23.5128 10.155 23.1541C10.062 22.6565 9.60925 22.7669 9.28425 22.9158C9.29095 21.4739 9.26595 20.0326 9.26215 18.5908C9.31095 18.6183 9.35945 18.5799 9.40425 18.576C9.41965 18.5851 9.43495 18.5468 9.45045 18.5716C9.52545 18.5958 9.60705 18.5526 9.68545 18.5546C9.79365 18.5371 9.89225 18.5827 9.96755 18.4945C9.99605 18.5061 9.99845 18.4123 10.015 18.4331C10.0282 18.3984 10.039 18.4104 10.0513 18.3638C10.0821 18.3421 10.1032 18.3543 10.1214 18.3062C10.1343 18.2705 10.1467 18.291 10.1684 18.2775C10.3797 17.5979 10.0445 16.7575 9.25635 17.2406C9.24015 16.2729 9.27605 15.3033 9.26175 14.3309C15.9662 23.1408 22.8746 31.9791 29.9015 40.5237C28.701 38.4341 27.2264 36.5406 25.9023 34.5307C28.8548 35.2355 31.999 35.1429 35.0357 35.219C34.3824 37.5251 34.6331 40.0169 34.6467 42.3902C34.6922 43.1069 35.464 43.0376 35.9895 42.9873C38.4941 42.9919 41.624 41.7101 42.0656 38.9677C42.2258 38.8376 42.3277 38.639 42.327 38.4165ZM31.0532 10.0701C31.5143 9.93282 31.9455 9.70282 32.3406 9.43092C33.1292 11.6324 33.9308 13.8917 34.8395 16.0776C34.3905 16.0696 33.9424 16.0434 33.4929 16.0425C32.7028 14.0118 31.6815 12.0887 30.7223 10.1452C30.834 10.1247 30.9408 10.0886 31.0532 10.0701ZM23.6864 21.0434C23.0589 20.7376 23.3876 20.0272 23.5998 19.5511C23.7924 19.0798 24.2912 17.8556 24.4792 17.3995C24.9266 17.4002 25.3735 17.4294 25.8206 17.433C25.5455 18.1145 25.1035 19.2129 24.8375 19.9082C24.6124 20.4453 24.5018 21.3563 23.6864 21.0434ZM29.4768 11.8614C29.6364 11.3114 29.9131 10.793 29.9781 10.2255C29.9994 10.2255 30.0206 10.2253 30.0418 10.2248C30.3622 12.2655 31.2063 14.1588 31.9429 16.0738C30.5904 16.1293 29.2424 16.1836 27.8911 16.2135C28.5491 14.8052 28.959 13.3158 29.4768 11.8614ZM35.2381 17.4832C35.2894 17.4767 35.3408 17.4724 35.3922 17.4674C35.7247 18.3643 36.1258 19.3701 36.4631 20.2684C36.6901 20.8717 35.8154 21.3479 35.4829 20.7631C35.0421 19.7298 34.5324 18.5347 34.099 17.4951C34.4789 17.5068 34.859 17.5111 35.2381 17.4832ZM27.5331 9.53602C28.0706 9.86342 28.6774 10.0949 29.3008 10.1875C28.0022 12.0359 27.2274 14.1891 26.3116 16.2408C25.8454 16.2738 25.3745 16.2665 24.9142 16.2973C25.793 14.0175 26.774 11.7519 27.2639 9.34432C27.2927 9.36492 27.5094 9.52132 27.5331 9.53602ZM2.36755 5.04892C2.96605 3.01942 5.38005 2.46652 7.24635 2.38302C7.24145 4.49512 7.29215 6.61842 7.54215 8.71472C5.25795 8.86702 2.17785 7.68032 2.36755 5.04892ZM7.90765 34.4136C7.92335 34.4033 7.93855 34.3934 7.95375 34.3834V34.4294C7.93645 34.4257 7.92035 34.421 7.90765 34.4136ZM7.95365 34.3202C7.94655 34.3186 7.93955 34.3174 7.93175 34.3159C7.93915 34.3153 7.94625 34.3148 7.95365 34.3142V34.3202ZM34.17 33.8679C31.3722 34.0353 28.5243 33.9246 25.7534 34.3174C20.3623 26.7012 14.783 19.1134 9.07695 11.7245C8.70435 11.2121 7.80305 11.5077 7.83455 12.1605C7.88285 19.4172 7.95235 26.8792 7.95355 34.1507C1.36935 33.7358 2.26795 30.7865 2.33205 25.5297C2.32955 19.8996 2.51045 14.1932 2.43685 8.56062C5.23235 11.6104 21.6565 9.74152 26.5311 9.68822C25.5617 11.9207 24.4745 14.122 23.5693 16.3835C23.3963 16.4455 21.5654 16.7583 21.8862 16.9028C21.877 16.9431 21.8216 16.9783 21.8797 17.0005C21.8228 17.0235 21.7647 17.0151 21.7176 17.0641C21.894 17.2552 22.1516 17.188 22.3798 17.216C22.6044 17.3181 22.9056 17.2089 23.1662 17.2914C22.6178 18.7521 21.0585 20.7086 22.6648 22.0294C22.3223 22.601 21.8768 23.2812 21.9012 23.9524C21.9161 23.9666 21.9185 23.9806 21.9118 23.9884C21.903 24.0054 21.9545 24.0341 21.9373 24.0578C21.9116 24.1368 21.9694 24.196 21.9375 24.2718C23.1921 25.4083 23.5216 23.3598 23.7059 22.4711C26.1686 22.7771 26.4445 19.1214 27.3743 17.4833C29.0912 17.5804 30.8043 17.5315 32.5218 17.5081C33.3867 19.0233 33.9145 22.6671 36.1068 22.4075C36.2804 23.0868 36.4324 23.9179 36.9485 24.402C36.969 24.4015 36.9807 24.4098 36.9814 24.4201C36.9872 24.4383 37.0439 24.4224 37.0485 24.4512C37.0861 24.5252 37.1688 24.5264 37.1998 24.6025C38.9505 24.4855 37.6126 22.7834 37.1338 22.0122C38.7534 20.7636 37.1406 18.7232 36.6698 17.3027C36.9876 17.2787 37.3172 17.2511 37.6264 17.2063C37.7368 17.1043 37.8839 17.1492 37.9886 17.0648C38.0207 17.0121 38.0759 17.0383 38.1127 17.0112C38.1385 16.964 38.1783 16.9542 38.2188 16.9337C37.7486 16.3445 36.8801 16.256 36.1703 16.1429C35.2051 14.008 34.3886 11.7711 33.1082 9.79422C35.8836 9.94802 40.2869 9.76272 41.0018 13.2414C40.948 20.6304 40.8326 28.0603 40.8886 35.4499C39.0574 33.7969 36.4986 33.7021 34.17 33.8679ZM40.8239 39.2719C40.0045 41.0001 37.8306 41.547 36.0679 41.5835C36.0914 39.4622 36.0173 37.3234 35.7655 35.2204C37.7939 35.1702 40.7061 36.0636 40.8764 38.4165H40.9072C40.9068 38.5353 40.9364 38.648 40.9879 38.7466C40.9548 38.9269 40.8983 39.1037 40.8239 39.2719ZM20.1537 34.3743C20.1353 34.407 20.1218 34.4026 20.1468 34.458C18.2905 32.5151 16.4384 30.537 14.7833 28.4113C14.8558 30.2297 14.6982 32.0813 14.6952 33.8987C16.4841 33.9582 18.2523 34.1962 20.0302 34.4C19.9936 34.4223 19.8993 34.4131 19.8473 34.4219C19.8642 34.4276 19.9391 34.4285 19.9117 34.4478C19.9156 34.4545 19.9195 34.4614 19.9234 34.4684C18.8891 34.8311 15.9855 35.0251 14.3031 35.05C13.7248 35.1227 13.4575 34.832 13.5087 34.2594C13.4451 31.6182 13.4392 28.9324 13.3519 26.2936C13.302 25.6525 14.1828 25.3231 14.5678 25.8261C16.6431 28.482 18.76 31.2469 20.1781 34.3105C20.1427 34.3102 20.149 34.3431 20.1537 34.3743ZM25.3653 26.7096C25.3615 26.7058 25.3587 26.6971 25.353 26.6859C25.3795 26.6389 25.4145 26.6458 25.4514 26.6223C25.4162 26.5986 25.4514 26.5594 25.4554 26.5246C26.4821 25.558 28.5365 26.0047 29.9519 25.7833C31.3057 25.8248 34.6941 25.1501 35.3764 26.5556C35.3518 26.5761 35.3276 26.5859 35.3119 26.6331C35.2896 26.6602 35.2545 26.6343 35.2365 26.6867C35.1805 26.7687 35.0819 26.7255 35.0165 26.8281C31.9351 27.3354 28.3808 27.3363 25.3653 26.7096ZM35.1777 30.0429C32.0864 30.7465 28.3628 30.633 25.3531 29.9966C25.3796 29.9496 25.4146 29.9565 25.4515 29.933C25.4163 29.9093 25.4515 29.8701 25.4555 29.8353C26.4822 28.8687 28.5366 29.3154 29.952 29.094C31.3058 29.1355 34.6942 28.4607 35.3765 29.8663C35.3384 29.8762 35.3276 29.9457 35.2864 29.9568C35.2446 29.9526 35.2226 30.05 35.1777 30.0429ZM29.4558 5.33692C29.4563 5.41312 29.3902 5.45822 29.4178 5.55492C28.9225 7.04132 31.2189 6.76322 30.5389 5.42582C30.4674 5.33952 30.3956 5.19422 30.2913 5.14952C30.258 5.13682 30.2021 5.17652 30.2071 5.11572C30.208 5.07282 30.1671 5.06672 30.1385 5.05592C30.0482 5.08242 29.9992 4.97422 29.9681 4.90242C29.9853 4.85762 30.0097 4.86522 30.0379 4.84262C30.0054 4.79342 30.0817 4.74462 30.0154 4.70042C30.9162 4.05962 31.9429 5.16042 31.8353 6.10592C31.839 7.92372 29.2202 8.61192 28.243 7.11752C27.084 5.71502 29.0184 3.24932 29.9682 4.77222C29.9498 4.79372 29.9321 4.80452 29.9229 4.85222C29.907 4.88022 29.8829 4.85582 29.8746 4.90812C29.8469 4.99172 29.779 4.95652 29.7612 5.06902C29.6575 5.14272 29.5483 5.23132 29.4558 5.33692Z" fill="#574948"/>
</svg>
