<svg width="49" height="46" viewBox="0 0 49 46" fill="none" xmlns="http://www.w3.org/2000/svg">
<path d="M32.2801 12.6873C31.601 11.9679 30.9089 11.2575 30.1177 10.6239C29.5966 10.217 29.0191 9.85868 28.363 9.61202C27.7011 9.37445 26.9495 9.32621 26.2398 9.46606C24.8125 9.79577 23.6925 10.7036 22.7529 11.6382C21.9345 12.4471 21.2377 13.3446 20.5867 14.2699C20.3199 14.1388 19.9845 14.033 19.6461 13.9604C19.3832 13.9046 19.1179 14.0629 19.0463 14.3255L18.9702 14.6044C13.4539 14.2378 7.44844 13.8879 1.40566 13.782C0.938217 13.7739 0.551172 14.1449 0.54049 14.6129C0.511229 16.0871 0.473959 17.5143 0.470007 19.6912C0.465429 21.3722 0.433151 23.0533 0.451344 24.7344L0.45152 24.7491C0.455511 25.2721 0.882757 25.6927 1.40566 25.6887C2.19695 25.6826 2.98835 25.6778 3.77964 25.6729C3.73668 31.1653 3.77972 34.6809 3.78028 34.8219C3.78316 35.3343 4.2009 35.7473 4.7133 35.7444C5.83828 35.738 6.96333 35.7195 8.08831 35.703L8.05861 39.855L8.03578 44.8963V44.9053C8.03831 45.4336 8.46855 45.8599 8.99685 45.8573L15.9753 45.8244C18.3014 45.8227 20.6276 45.7669 22.9537 45.7408L29.9321 45.5982C32.2583 45.5538 34.5844 45.4576 36.9105 45.3875L36.9512 45.3862L36.9575 45.386C37.2154 45.3734 37.4142 45.1541 37.4017 44.8963L36.9511 35.6435C41.3633 35.5467 44.3178 35.42 44.431 35.416C44.7531 35.4042 45.0047 35.1334 44.9928 34.8113C44.8739 31.5834 44.6346 28.4383 44.4383 25.5049C45.3545 25.4748 46.4736 25.4359 47.6231 25.3928C47.9697 25.3758 48.2371 25.081 48.2202 24.7344C48.1343 22.9775 48.0522 21.2287 47.9224 19.5408L47.5594 14.6479C47.1088 21.2235 47.1234 20.5398 46.936 24.0518C44.7432 23.9708 42.5503 23.8938 40.3575 23.8586C38.7436 23.8126 37.1295 23.8024 35.5156 23.7935C35.7098 23.599 35.8982 23.397 36.0705 23.1737C36.7646 22.3252 37.4271 21.3575 37.7524 20.1398C37.8854 19.5257 37.9338 18.86 37.7934 18.224C37.656 17.5959 37.4033 17.0115 37.0823 16.5178C36.8005 16.0846 36.4879 15.7033 36.1629 15.3466C40.6164 15.1512 42.7175 14.9577 47.5594 14.6479L41.1323 14.1935C38.91 14.055 36.6264 13.9399 34.3287 13.8717C34.1465 13.8669 33.9646 13.9346 33.8161 14.0597C33.749 14.007 33.6827 13.9531 33.6154 13.9007C33.8347 13.6092 34.0447 13.3093 34.2402 12.9962C34.4771 12.6046 34.6976 12.198 34.8884 11.7645C36.2473 12.7492 38.2466 12.7347 39.5167 11.631C39.6866 11.4964 39.8511 11.3135 39.9781 11.1733C40.0612 11.0756 41.0511 9.91122 40.9681 10.0089C41.4122 9.49523 41.8419 8.96827 42.2693 8.43944C42.6956 7.90949 43.1336 7.39022 43.5503 6.85147C43.6263 6.75386 44.5676 5.5453 44.4916 5.64291C44.5988 5.4959 44.7319 5.33069 44.8182 5.15533C45.1945 4.45959 45.3166 3.64806 45.1369 2.92215C44.9707 2.19296 44.524 1.56882 43.9547 1.18564C44.834 2.25957 44.7929 3.76954 44.0329 4.64023C43.9421 4.75538 43.8476 4.84406 43.7357 4.95574C43.6394 5.04668 42.5258 6.09866 42.6221 6.00771C42.1254 6.47369 41.6501 6.9591 41.1631 7.43388C40.6773 7.90972 40.1936 8.3875 39.7245 8.87848C39.6304 8.97537 38.5654 10.0716 38.6595 9.97471C38.55 10.0772 38.4834 10.1452 38.3809 10.2144C37.6431 10.7943 36.5126 10.7358 35.8551 10.0959C35.1581 9.50139 34.9891 8.38204 35.4991 7.59422C35.5582 7.48576 35.6194 7.41317 35.7109 7.29432C35.794 7.19661 36.7837 6.03201 36.7007 6.12973C37.4687 5.24041 38.0141 4.54134 39.2834 2.97286C39.3594 2.87521 40.3002 1.66613 40.2242 1.76378C40.3247 1.64194 40.4034 1.53883 40.5099 1.43829C41.3029 0.598943 42.8011 0.413842 43.9547 1.18564C43.5196 0.654814 42.8556 0.269001 42.1136 0.172342C41.3737 0.0626551 40.5768 0.260667 39.9193 0.701588C39.7535 0.804995 39.601 0.952771 39.4649 1.07361C39.3686 1.16451 38.2545 2.21596 38.3508 2.12506C36.9043 3.5436 36.2652 4.14818 35.4538 4.99641C35.3597 5.09328 34.2945 6.18927 34.3887 6.0924C34.2611 6.23219 34.0946 6.41354 33.9765 6.59553C33.0016 7.96641 33.1745 9.95827 34.2854 11.2169C33.8721 11.4479 33.4886 11.7061 33.1214 11.9791C32.8281 12.2035 32.5496 12.4412 32.2801 12.6873ZM10.9296 23.9035C10.2349 23.8931 9.60781 23.8725 9.27574 23.8675C8.75951 23.8544 8.16964 23.8521 7.79892 23.8445C5.98577 23.8134 4.17267 23.7981 2.35951 23.7866C2.3611 22.4214 2.34478 21.0563 2.34109 19.6912C2.33856 18.2902 2.31204 16.8893 2.2831 15.4884C7.65414 15.3645 13.0794 15.0375 18.9492 14.6891C18.7154 15.5664 18.6483 16.4436 18.7061 17.3209L18.7097 17.3762C17.9594 18.8125 17.3178 20.3094 16.8194 21.8747C16.6056 22.5843 16.429 23.3113 16.3033 24.0571L14.7997 24.0141C13.6529 23.9754 12.6079 23.9481 10.9296 23.9035ZM7.86001 25.6234C8.33192 25.6151 8.80383 25.6134 9.27574 25.6013C9.60632 25.5963 9.93679 25.5845 10.2674 25.5779C11.6854 25.5531 15.1841 25.4448 16.1497 25.4161C16.1394 25.5803 16.1213 25.742 16.1178 25.9085C16.1073 26.6159 16.1623 27.3489 16.373 28.0925C16.5812 28.8288 16.973 29.5963 17.6095 30.1761C18.2517 30.747 19.0498 31.0636 19.8027 31.1987C20.5622 31.3362 21.2966 31.3206 21.9995 31.2426C22.5595 31.1765 23.0987 31.0636 23.6279 30.9297L23.6034 34.2568L23.1912 34.2403C18.5123 34.0764 13.7556 33.9655 8.99685 33.9115L8.9931 33.9115C8.95982 33.9112 8.93153 33.9264 8.8992 33.9297C7.81623 33.9118 6.73333 33.8988 5.65037 33.8898C5.67261 31.1458 5.66827 28.4018 5.64673 25.6578C6.3103 25.6518 7.76166 25.6253 7.86001 25.6234ZM36.4442 44.39C34.2735 44.3215 32.1029 44.236 29.9321 44.1945L22.9537 44.0519C20.6276 44.0259 18.3014 43.9701 15.9753 43.9684L9.9534 43.94L9.93492 39.855L9.90522 35.6994C14.1493 35.6419 18.3982 35.54 22.7163 35.387L23.7782 35.3441C23.9459 35.5875 24.2123 35.7579 24.5315 35.7617L24.55 35.7619C26.203 35.7818 27.856 35.7608 29.509 35.7521C33.8641 35.7207 32.3014 35.7448 36.8701 35.6453L36.4442 44.39ZM43.811 34.1849C40.6966 34.0618 37.5824 33.9746 34.4681 33.9246C32.8151 33.8836 31.1621 33.8825 29.509 33.8706C28.1705 33.8635 26.832 33.8534 25.4935 33.8585L25.4676 30.3423C25.6273 30.281 25.7892 30.2234 25.9468 30.1584C28.4096 29.1085 30.6794 27.7315 32.7222 26.0552C32.8661 25.9356 33.0071 25.8122 33.1495 25.6904C33.1516 25.6904 33.1535 25.6916 33.1557 25.6916C35.5563 25.666 37.9569 25.6786 40.3575 25.6103C41.6845 25.589 43.0115 25.5516 44.3384 25.5084C44.1552 28.5534 43.9376 31.4087 43.811 34.1849ZM33.7008 14.1923C33.4846 14.4876 33.492 14.8976 33.7549 15.1698L33.7971 15.2135C34.4916 15.9327 35.1782 16.6463 35.6175 17.4081C36.0627 18.1734 36.179 18.9202 35.9659 19.6868C35.7483 20.462 35.2377 21.2433 34.6215 21.9641C34.0043 22.6934 33.217 23.3033 32.5429 23.9991L32.4616 24.083C32.3442 24.2049 32.2761 24.3642 32.2369 24.5348C32.0917 24.6453 31.9547 24.7656 31.8072 24.873C29.773 26.3222 27.5829 27.5978 25.2764 28.4711C24.1272 28.8969 22.9508 29.2636 21.7982 29.3763C20.6546 29.5023 19.5305 29.3381 18.8985 28.7505C18.2531 28.1818 17.9809 27.0805 17.9968 25.9305C17.9994 24.7731 18.2502 23.5664 18.568 22.3829C18.9704 20.9058 19.5454 19.4646 20.2126 18.0623C20.3212 17.9794 20.4171 17.8781 20.4831 17.748C20.6626 17.3944 20.8025 17.0224 20.9202 16.6538C21.1195 16.2804 21.3163 15.9054 21.5273 15.5396C22.1634 14.4645 22.8737 13.4296 23.6749 12.4976C24.4644 11.5614 25.3915 10.729 26.4685 10.3822C27.0038 10.2205 27.5764 10.1876 28.1487 10.3258C28.7185 10.4736 29.273 10.7455 29.8134 11.0616C30.6275 11.5702 31.4024 12.1743 32.1774 12.7814C31.3006 13.5999 30.5731 14.4943 29.992 15.4256C29.5835 16.1029 29.2093 16.8112 28.9838 17.6547C29.8021 17.35 30.4716 16.9101 31.107 16.4392C31.9705 15.7784 32.7929 14.9719 33.5312 14.0122C33.588 14.0721 33.6441 14.1324 33.7008 14.1923Z" fill="white"/>
</svg>
