<svg width="18" height="18" viewBox="0 0 18 18" fill="none" xmlns="http://www.w3.org/2000/svg">
<path fill-rule="evenodd" clip-rule="evenodd" d="M1.48177 3.18116C0.802734 4.33949 0.802734 5.89199 0.802734 9.00033C0.802734 12.1078 0.802734 13.6612 1.48177 14.8195C1.93216 15.5884 2.58264 16.2262 3.36675 16.6678C4.54804 17.3337 6.13132 17.3337 9.30128 17.3337C12.4704 17.3337 14.0545 17.3337 15.2358 16.6678C16.0199 16.2262 16.6704 15.5884 17.1208 14.8195C17.7998 13.6612 17.7998 12.1087 17.7998 9.00033C17.7998 5.89283 17.7998 4.33949 17.1208 3.18116C16.6704 2.4123 16.0199 1.77446 15.2358 1.33283C14.0545 0.666992 12.4712 0.666992 9.30128 0.666992C6.13217 0.666992 4.54804 0.666992 3.36675 1.33283C2.58264 1.77446 1.93216 2.4123 1.48177 3.18116ZM12.8639 15.617C12.0166 15.692 10.916 15.6937 9.30128 15.6937C7.68656 15.6937 6.58599 15.692 5.73869 15.617C4.91433 15.5445 4.49365 15.412 4.19875 15.2462C3.67131 14.9491 3.23374 14.52 2.93077 14.0028C2.7608 13.7137 2.62652 13.3012 2.55259 12.4928C2.4761 11.662 2.4744 10.5828 2.4744 8.99949C2.4744 7.41616 2.4761 6.33699 2.55259 5.50616C2.62652 4.69783 2.76165 4.28533 2.93077 3.99616C3.23374 3.47897 3.67131 3.04991 4.19875 2.75283C4.49365 2.58616 4.91433 2.45449 5.73869 2.38199C6.58599 2.30699 7.68656 2.30533 9.30128 2.30533C10.916 2.30533 12.0166 2.30699 12.8639 2.38199C13.6882 2.45449 14.1089 2.58699 14.403 2.75283C14.9307 3.05033 15.3684 3.47949 15.6718 3.99616C15.8409 4.28533 15.976 4.69783 16.05 5.50616C16.1265 6.33699 16.1282 7.41616 16.1282 8.99949C16.1282 10.5828 16.1265 11.662 16.05 12.4928C15.976 13.3012 15.8409 13.7137 15.6718 14.002C15.3689 14.5195 14.9313 14.9488 14.4038 15.2462C14.1089 15.412 13.6882 15.5445 12.8639 15.617ZM12.5885 4.65449C12.5885 4.35734 12.7089 4.07236 12.9232 3.86224C13.1375 3.65212 13.4281 3.53408 13.7311 3.53408C14.0342 3.53408 14.3248 3.65212 14.5391 3.86224C14.7534 4.07236 14.8738 4.35734 14.8738 4.65449C14.8738 4.95153 14.7534 5.23641 14.5392 5.44645C14.325 5.65649 14.0345 5.77449 13.7316 5.77449C13.4286 5.77449 13.1381 5.65649 12.9239 5.44645C12.7097 5.23641 12.5894 4.95153 12.5894 4.65449H12.5885ZM9.30128 4.65449C8.71937 4.65449 8.14317 4.76688 7.60556 4.98524C7.06794 5.20359 6.57946 5.52364 6.16799 5.92711C5.75652 6.33058 5.43012 6.80957 5.20744 7.33673C4.98475 7.86389 4.87014 8.4289 4.87014 8.99949C4.87014 9.57009 4.98475 10.1351 5.20744 10.6623C5.43012 11.1894 5.75652 11.6684 6.16799 12.0719C6.57946 12.4753 7.06794 12.7954 7.60556 13.0138C8.14317 13.2321 8.71937 13.3445 9.30128 13.3445C10.4766 13.3445 11.6038 12.8867 12.4349 12.0717C13.266 11.2568 13.7328 10.1516 13.7328 8.99908C13.7328 7.8466 13.266 6.74133 12.4349 5.9264C11.6038 5.11148 10.4766 4.65449 9.30128 4.65449ZM6.65483 9.00033C6.65483 8.65955 6.72329 8.3221 6.85628 8.00726C6.98928 7.69242 7.18421 7.40635 7.42996 7.16538C7.6757 6.92442 7.96745 6.73327 8.28853 6.60286C8.60961 6.47245 8.95374 6.40533 9.30128 6.40533C9.64882 6.40533 9.99295 6.47245 10.314 6.60286C10.6351 6.73327 10.9269 6.92442 11.1726 7.16538C11.4183 7.40635 11.6133 7.69242 11.7463 8.00726C11.8793 8.3221 11.9477 8.65955 11.9477 9.00033C11.9477 9.68856 11.6689 10.3486 11.1726 10.8353C10.6763 11.3219 10.0032 11.5953 9.30128 11.5953C8.5994 11.5953 7.92627 11.3219 7.42996 10.8353C6.93365 10.3486 6.65483 9.68856 6.65483 9.00033Z" fill="white"/>
</svg>
