<svg width="134" height="50" viewBox="0 0 134 50" fill="none" xmlns="http://www.w3.org/2000/svg">
<path d="M94.9162 0.969542C95.3881 1.01845 97.3363 1.27247 97.8058 1.34321C96.0961 1.22356 92.8883 0.914939 91.1761 0.836121C89.3073 0.749706 87.4351 0.719319 85.5639 0.686557C84.9429 0.675637 84.3218 0.670888 83.7008 0.670888C83.0797 0.670888 82.4378 0.675636 81.8063 0.684183C80.6121 0.699852 79.4175 0.733563 78.2248 0.785792C76.8735 0.845142 75.5218 0.909716 74.1733 1.0156C72.596 1.13905 71.022 1.30476 69.4471 1.46097C66.7108 1.73256 63.9968 2.15941 61.3003 2.69167C57.132 3.51403 53.0283 4.58235 49.0071 5.96356C45.654 7.11544 42.3931 8.48098 39.2062 10.0327C36.6526 11.2757 34.1604 12.6227 31.7911 14.1867C29.0724 15.9815 26.4875 17.9401 24.1325 20.2097C21.7148 22.5391 19.58 25.0869 17.7226 27.873C16.2274 30.116 14.9768 32.4915 13.907 34.9643C13.1127 36.7999 12.4185 38.6716 11.8839 40.5979C11.4998 41.981 11.1759 43.3807 10.8255 44.7733C10.5473 46.0999 10.2871 47.3605 10.2548 47.5058L5.90607 47.1098C5.91746 46.9441 6.65389 43.9377 6.68522 43.8052C7.19042 41.6629 7.83473 39.5609 8.62671 37.5083C10.2069 33.4121 12.2666 29.5691 14.8158 25.99C16.8518 23.1321 19.1669 20.5192 21.7527 18.1485C25.0617 15.115 28.7519 12.6298 32.7307 10.5559C35.7458 8.98475 38.823 7.55131 41.9862 6.30684C45.3245 4.99353 48.7479 3.94326 52.232 3.08623C56.0219 2.15418 59.8484 1.41966 63.7242 0.959096C65.8523 0.706024 67.9866 0.497109 70.1218 0.31146C71.3971 0.200355 72.6791 0.159522 73.9592 0.112516C75.3689 0.060287 76.7795 0.0237269 78.1902 0.00615901C78.5301 0.00188575 78.8706 -0.000488281 79.211 -0.000488281C79.9365 -0.000488281 80.6625 0.00995747 81.3875 0.035597C83.2008 0.0992211 85.0131 0.18801 86.825 0.277274C89.5304 0.410694 92.2236 0.689881 94.9162 0.969067V0.969542ZM101.455 1.57824C101.408 1.5113 101.349 1.45527 101.283 1.40826C101.203 1.35176 101.113 1.31235 101.022 1.27769C100.937 1.24493 100.85 1.21834 100.761 1.19745C100.654 1.17228 100.546 1.14617 100.439 1.12006C100.357 1.10011 100.275 1.08112 100.193 1.05881C100.074 1.02652 99.9681 0.969542 99.8789 0.883127C99.858 0.86271 99.8371 0.842769 99.8181 0.820927C99.7758 0.771548 99.7355 0.720268 99.6937 0.670414C99.6391 0.60489 99.5911 0.534619 99.5322 0.472419C99.49 0.427787 99.4511 0.380782 99.4078 0.337099C99.3884 0.317157 99.3637 0.327128 99.3419 0.338524C99.32 0.349919 99.3086 0.370811 99.2934 0.388853C99.2488 0.443456 99.2488 0.451528 99.2792 0.516101C99.3077 0.576402 99.3267 0.639551 99.3371 0.706974C99.3485 0.781044 99.3532 0.855113 99.3599 0.929183C99.3627 0.963369 99.3694 0.998505 99.367 1.03127C99.3604 1.12243 99.3694 1.21359 99.3627 1.30476C99.3537 1.43295 99.3295 1.55973 99.3024 1.6846C99.2758 1.809 99.2535 1.9353 99.2042 2.054C99.1776 2.11857 99.1553 2.18552 99.1068 2.23823C99.0688 2.27906 99.0589 2.32084 99.0883 2.37022C99.1002 2.39064 99.1092 2.41295 99.1182 2.4348C99.132 2.46756 99.1581 2.47895 99.1861 2.46091C99.2493 2.42055 99.311 2.37829 99.3703 2.33271C99.4273 2.28855 99.4795 2.2387 99.5341 2.19217C99.5769 2.15608 99.6191 2.11952 99.6638 2.08581C99.7155 2.04688 99.7673 2.00747 99.8228 1.97518C99.942 1.90586 100.076 1.90586 100.208 1.89921C100.338 1.89257 100.468 1.89447 100.597 1.89019C100.681 1.88734 100.765 1.88307 100.849 1.87405C100.978 1.86028 101.106 1.84034 101.237 1.78336C101.306 1.76484 101.372 1.71641 101.437 1.66846C101.473 1.64187 101.48 1.61433 101.454 1.57777L101.455 1.57824Z" fill="#23AFBD"/>
<path d="M100.547 15.7601L106.438 9.03638H102.759L100.547 11.56L98.3367 9.03638H94.6569L98.7075 13.66L100.547 15.7601Z" fill="#23AFBD"/>
<path d="M86.551 9.03638H82.8513L92.7905 20.4256C93.552 19.8591 94.3706 19.3786 95.2442 18.9978L86.551 9.03685V9.03638Z" fill="#23AFBD"/>
<path d="M118.244 9.03638H114.544L105.928 18.909C106.802 19.3007 107.602 19.8031 108.317 20.4108L118.243 9.03638H118.244Z" fill="#23AFBD"/>
<path d="M92.3764 9.03638H88.6767L96.8652 18.4195C97.8946 18.1256 98.9805 17.9509 100.112 17.9005L92.3769 9.03685L92.3764 9.03638Z" fill="#23AFBD"/>
<path d="M112.419 9.03638H108.719L100.996 17.8853C102.168 17.9005 103.277 18.0496 104.308 18.3302L112.419 9.03638Z" fill="#23AFBD"/>
<path d="M100.8 20.7771C97.2869 20.7771 94.269 22.1825 92.2435 25.1173L94.7652 27.6798C96.4598 25.6548 98.113 24.6624 100.387 24.6624C103.156 24.6624 104.727 26.1923 104.727 29.0027V30.3255H98.9815C94.3929 30.3255 91.4995 32.5988 91.4995 36.1129C91.4995 39.6269 94.3103 41.9824 98.5679 41.9824C101.338 41.9824 103.57 41.0319 105.058 39.2542V41.5276H109.109V29.251C109.109 23.7945 105.802 20.7771 100.8 20.7771H100.8ZM104.727 33.8395C104.727 36.6086 102.412 38.6336 99.4776 38.6336C97.37 38.6336 95.9228 37.6418 95.9228 35.9472C95.9228 34.2526 97.2043 33.4673 99.5189 33.4673H104.727V33.8395H104.727Z" fill="#4D626A"/>
<path d="M57.5214 20.7771C54.0083 20.7771 50.9904 22.1825 48.9649 25.1173L51.4866 27.6798C53.1811 25.6548 54.8349 24.6624 57.1083 24.6624C59.8773 24.6624 61.4485 26.1923 61.4485 29.0027V30.3255H55.7028C51.1143 30.3255 48.2213 32.5988 48.2213 36.1129C48.2213 39.6269 51.0317 41.9824 55.2888 41.9824C58.0588 41.9824 60.2904 41.0319 61.7785 39.2542V41.5276H65.8295V29.251C65.8295 23.7945 62.523 20.7771 57.5214 20.7771ZM61.4485 33.8395C61.4485 36.6086 59.1333 38.6336 56.1985 38.6336C54.0909 38.6336 52.6437 37.6418 52.6437 35.9472C52.6437 34.2526 53.9252 33.4673 56.2398 33.4673H61.4485V33.8395Z" fill="#4D626A"/>
<path d="M80.5039 20.777C77.693 20.777 75.254 21.8519 73.7246 23.7118V10.5264H69.3844V41.5274H73.4355V38.7166C74.9648 40.8252 77.5691 41.9823 80.5447 41.9823C86.2078 41.9823 90.4649 37.3938 90.4649 31.4008C90.4649 25.4078 86.2491 20.7774 80.5034 20.7774L80.5039 20.777ZM79.8007 38.0139C76.6186 38.0139 73.6838 35.8231 73.6838 31.4003C73.6838 26.9775 76.6186 24.7449 79.8007 24.7449C83.273 24.7449 86.0012 27.4732 86.0012 31.3585C86.0012 35.2439 83.3148 38.0139 79.8007 38.0139Z" fill="#4D626A"/>
<path d="M128.082 10.5264V23.7118C126.553 21.8519 124.114 20.777 121.304 20.777C115.682 20.653 111.259 25.4894 111.383 31.4003C111.383 37.3933 115.599 41.9818 121.304 41.9818C124.321 41.9818 126.925 40.7421 128.413 38.6335V41.527H132.464V10.5264H128.082ZM122.048 38.0139C118.451 38.0139 115.806 35.2439 115.806 31.3585C115.806 27.4732 118.575 24.7449 122.048 24.7449C125.189 24.7449 128.165 27.0183 128.165 31.4003C128.165 35.7823 125.23 38.0139 122.048 38.0139Z" fill="#4D626A"/>
<path d="M14.3871 37.9734C14.3206 37.9734 14.257 37.9654 14.1905 37.9639C13.8116 38.9905 13.483 39.9876 13.2114 40.9661C13.1227 41.2847 13.04 41.61 12.956 41.9343C13.4147 41.9732 13.8785 41.9903 14.3458 41.9832C19.4295 41.9832 23.7284 39.5441 26.0431 35.7001L22.7365 33.261C20.7941 36.2784 17.9832 37.9734 14.3871 37.9734Z" fill="#4D626A"/>
<path d="M4.54955 27.8881C4.54955 22.1007 8.80715 17.8023 14.3871 17.8023C16.0978 17.8023 17.6286 18.1902 18.9751 18.9171C19.5762 18.3079 20.1906 17.7116 20.8221 17.1328C21.2324 16.7567 21.6497 16.3873 22.0732 16.0251C19.8844 14.6049 17.2264 13.7925 14.3462 13.7925C6.5746 13.6691 -0.16243 20.0756 0.00280307 27.8881C-0.10118 32.7952 2.51975 37.1473 6.4089 39.6752C6.69758 38.774 7.00525 37.8828 7.34094 37.0125C7.52422 36.5372 7.71604 36.0662 7.91261 35.5966C5.83533 33.7819 4.54955 31.0617 4.54955 27.8881Z" fill="#4D626A"/>
<path d="M38.6298 20.7771C36.1916 20.7771 34.1248 21.6455 32.7602 23.2574V15.2009C32.6909 15.2465 32.6192 15.2911 32.5503 15.3367C31.0495 16.3276 29.6801 17.3129 28.42 18.3076V41.5275H32.7602V29.4575C32.7602 26.6884 34.7031 24.745 37.3896 24.745C40.076 24.745 41.8124 26.6471 41.8124 29.4575V41.5275H46.1526V28.8379C46.1526 24.0428 43.2591 20.7771 38.6293 20.7771H38.6298Z" fill="#4D626A"/>
<path d="M33.206 48.1103C33.5071 48.5495 33.8712 48.8306 34.3921 48.8306C34.8588 48.8306 35.1746 48.5837 35.1746 48.1995C35.1746 47.8767 34.9818 47.7399 34.5084 47.5201L34.008 47.2874C33.349 46.9855 32.9515 46.6355 32.9515 46.032C32.9515 45.2914 33.5959 44.8042 34.3783 44.8042C35.0165 44.8042 35.5582 45.1271 35.8393 45.6137L35.3317 46.005C35.091 45.6479 34.762 45.4561 34.3783 45.4561C33.9947 45.4561 33.6922 45.6479 33.6922 46.005C33.7193 46.3611 33.8769 46.4233 34.3233 46.6493L34.8308 46.8829C35.5644 47.2191 35.9143 47.5752 35.9143 48.172C35.9143 48.9607 35.27 49.4825 34.3992 49.4825C33.6585 49.4825 33.0408 49.1121 32.6913 48.502L33.206 48.1108V48.1103Z" fill="#23AFBD"/>
<path d="M36.8445 44.8796H38.4968C39.4089 44.8796 40.0338 45.4485 40.0338 46.2651C40.0338 47.0818 39.4094 47.6577 38.4968 47.6577H37.5709V49.4065H36.8445V44.8796ZM38.483 47.0125C38.9977 47.0125 39.2859 46.7176 39.2859 46.2722C39.2859 45.8269 38.9977 45.524 38.483 45.524H37.5709V47.012H38.483V47.0125Z" fill="#23AFBD"/>
<path d="M43.008 48.652H40.971L40.6482 49.4065H39.8728L41.8694 44.8042H42.1163L44.1119 49.4065H43.3303L43.0075 48.652H43.008ZM41.9928 46.1555L41.2312 48.0286H42.7473L41.9928 46.1555Z" fill="#23AFBD"/>
<path d="M46.8245 44.8042C47.6539 44.8042 48.3738 45.2088 48.765 45.8469L48.2161 46.2514C47.8942 45.7505 47.4275 45.469 46.8306 45.469C45.9048 45.469 45.1982 46.1826 45.1982 47.1427C45.1982 48.1027 45.9048 48.8163 46.8306 48.8163C47.4275 48.8163 47.8942 48.5353 48.2161 48.0339L48.765 48.4384C48.3809 49.0765 47.6682 49.4811 46.8245 49.4811C45.5349 49.502 44.4167 48.4384 44.4438 47.1422C44.4167 45.846 45.5344 44.7824 46.8245 44.8033V44.8042Z" fill="#23AFBD"/>
<path d="M49.632 44.8796H52.6085V45.5316H50.3589V46.6906H52.0535V47.3216H50.3589V48.755H52.6907V49.4069H49.6324V44.8801L49.632 44.8796Z" fill="#23AFBD"/>
<path d="M58.4012 48.652H56.3643L56.0414 49.4065H55.2661L57.2626 44.8042H57.5095L59.5051 49.4065H58.7236L58.4007 48.652H58.4012ZM57.3861 46.1555L56.6245 48.0286H58.1405L57.3861 46.1555Z" fill="#23AFBD"/>
<path d="M63.9521 44.8797V49.482H63.7052L60.948 46.3407V49.4065H60.2216V44.8042H60.4751L63.2252 47.9318V44.8797H63.9526H63.9521Z" fill="#23AFBD"/>
<path d="M65.0941 44.8796H66.5137C67.9947 44.8796 68.9756 45.7984 68.9756 47.1359C68.9756 48.4735 67.9885 49.4065 66.5137 49.4065H65.0941V44.8796ZM66.5066 48.7545C67.5559 48.7545 68.2283 48.0822 68.2283 47.1359C68.2283 46.1896 67.5631 45.5377 66.5066 45.5377H65.8205V48.7545H66.5066Z" fill="#23AFBD"/>
<path d="M73.0518 45.5316H71.5296V44.8796H75.3091V45.5316H73.7792V49.4065H73.0518V45.5316Z" fill="#23AFBD"/>
<path d="M78.8302 49.4065L77.5411 47.6577H76.7111V49.4065H75.9847V44.8796H77.637C78.5491 44.8796 79.174 45.4485 79.174 46.2651C79.174 46.862 78.8449 47.3277 78.3032 47.5405L79.6606 49.4065H78.8307H78.8302ZM76.7111 47.0125H77.6232C78.1242 47.0125 78.4261 46.7114 78.4261 46.2722C78.4261 45.8331 78.1242 45.524 77.6232 45.524H76.7111V47.012V47.0125Z" fill="#23AFBD"/>
<path d="M80.3088 44.8796H83.2853V45.5316H81.0357V46.6906H82.7303V47.3216H81.0357V48.755H83.3675V49.4069H80.3093V44.8801L80.3088 44.8796Z" fill="#23AFBD"/>
<path d="M86.9233 48.652H84.8864L84.5635 49.4065H83.7881L85.7847 44.8042H86.0316L88.0272 49.4065H87.2457L86.9228 48.652H86.9233ZM85.9082 46.1555L85.1466 48.0286H86.6626L85.9082 46.1555Z" fill="#23AFBD"/>
<path d="M88.9013 48.1103C89.2023 48.5495 89.5665 48.8306 90.0874 48.8306C90.5541 48.8306 90.8699 48.5837 90.8699 48.1995C90.8699 47.8767 90.6771 47.7399 90.2037 47.5201L89.7033 47.2874C89.0442 46.9855 88.6468 46.6355 88.6468 46.032C88.6468 45.2914 89.2911 44.8042 90.0736 44.8042C90.7118 44.8042 91.2535 45.1271 91.5346 45.6137L91.027 46.005C90.7863 45.6479 90.4573 45.4561 90.0736 45.4561C89.69 45.4561 89.3875 45.6479 89.3875 46.005C89.4146 46.3611 89.5722 46.4233 90.0185 46.6493L90.5261 46.8829C91.2597 47.2191 91.6096 47.5752 91.6096 48.172C91.6096 48.9607 90.9653 49.4825 90.0945 49.4825C89.3538 49.4825 88.7361 49.1121 88.3866 48.502L88.9013 48.1108V48.1103Z" fill="#23AFBD"/>
<path d="M92.4913 44.8796H93.2187V47.6235C93.2187 48.3913 93.6921 48.8167 94.3573 48.8167C95.0225 48.8167 95.4821 48.3913 95.4821 47.6235V44.8796H96.2095V47.5746C96.2095 48.7678 95.4209 49.4819 94.3573 49.4819C93.2938 49.4819 92.4913 48.7683 92.4913 47.5746V44.8796Z" fill="#23AFBD"/>
<path d="M100.142 49.4065L98.8528 47.6577H98.0228V49.4065H97.2964V44.8796H98.9487C99.8608 44.8796 100.486 45.4485 100.486 46.2651C100.486 46.862 100.157 47.3277 99.6149 47.5405L100.972 49.4065H100.142H100.142ZM98.0228 47.0125H98.9349C99.4359 47.0125 99.7379 46.7114 99.7379 46.2722C99.7379 45.8331 99.4359 45.524 98.9349 45.524H98.0228V47.012V47.0125Z" fill="#23AFBD"/>
<path d="M101.62 44.8796H104.597V45.5316H102.347V46.6906H104.042V47.3216H102.347V48.755H104.679V49.4069H101.621V44.8801L101.62 44.8796Z" fill="#23AFBD"/>
<path d="M109.778 44.8042C110.608 44.8042 111.327 45.2088 111.719 45.8469L111.17 46.2514C110.848 45.7505 110.381 45.469 109.784 45.469C108.858 45.469 108.152 46.1826 108.152 47.1427C108.152 48.1027 108.858 48.8163 109.784 48.8163C110.381 48.8163 110.848 48.5353 111.17 48.0339L111.719 48.4384C111.334 49.0765 110.622 49.4811 109.778 49.4811C108.489 49.502 107.37 48.4384 107.397 47.1422C107.37 45.846 108.488 44.7824 109.778 44.8033V44.8042Z" fill="#23AFBD"/>
<path d="M114.651 44.804C115.933 44.7831 117.058 45.8467 117.031 47.1429C117.058 48.4391 115.934 49.5027 114.651 49.4818C113.354 49.5027 112.25 48.4391 112.277 47.1429C112.257 45.8467 113.361 44.7831 114.651 44.804ZM114.658 45.4692C113.718 45.4692 113.031 46.1829 113.031 47.1358C113.031 48.0887 113.718 48.8166 114.658 48.8166C115.598 48.8166 116.283 48.103 116.283 47.1358C116.283 46.1686 115.584 45.4692 114.658 45.4692Z" fill="#23AFBD"/>
<path d="M120.503 48.652H118.466L118.143 49.4065H117.368L119.364 44.8042H119.611L121.607 49.4065H120.825L120.503 48.652H120.503ZM119.488 46.1555L118.726 48.0286H120.242L119.488 46.1555Z" fill="#23AFBD"/>
<path d="M122.481 48.1103C122.782 48.5495 123.146 48.8306 123.667 48.8306C124.134 48.8306 124.45 48.5837 124.45 48.1995C124.45 47.8767 124.257 47.7399 123.783 47.5201L123.283 47.2874C122.624 46.9855 122.227 46.6355 122.227 46.032C122.227 45.2914 122.871 44.8042 123.653 44.8042C124.291 44.8042 124.833 45.1271 125.114 45.6137L124.607 46.005C124.366 45.6479 124.037 45.4561 123.653 45.4561C123.27 45.4561 122.967 45.6479 122.967 46.005C122.994 46.3611 123.152 46.4233 123.598 46.6493L124.106 46.8829C124.839 47.2191 125.189 47.5752 125.189 48.172C125.189 48.9607 124.545 49.4825 123.674 49.4825C122.934 49.4825 122.316 49.1121 121.966 48.502L122.481 48.1108V48.1103Z" fill="#23AFBD"/>
<path d="M127.183 45.5316H125.661V44.8796H129.44V45.5316H127.911V49.4065H127.183V45.5316Z" fill="#23AFBD"/>
<path d="M130.307 48.1103C130.608 48.5495 130.972 48.8306 131.493 48.8306C131.959 48.8306 132.275 48.5837 132.275 48.1995C132.275 47.8767 132.083 47.7399 131.609 47.5201L131.109 47.2874C130.45 46.9855 130.052 46.6355 130.052 46.032C130.052 45.2914 130.697 44.8042 131.479 44.8042C132.117 44.8042 132.659 45.1271 132.94 45.6137L132.433 46.005C132.192 45.6479 131.863 45.4561 131.479 45.4561C131.096 45.4561 130.793 45.6479 130.793 46.005C130.82 46.3611 130.978 46.4233 131.424 46.6493L131.932 46.8829C132.665 47.2191 133.015 47.5752 133.015 48.172C133.015 48.9607 132.371 49.4825 131.5 49.4825C130.759 49.4825 130.142 49.1121 129.792 48.502L130.307 48.1108V48.1103Z" fill="#23AFBD"/>
<path d="M17.7558 46.1404C18.5231 46.1404 19.1171 46.7287 19.1171 47.496C19.1337 48.297 18.4168 49.0083 17.5935 48.9916C16.8262 48.9916 16.2436 48.409 16.2436 47.6361C16.2265 46.8351 16.9439 46.1238 17.7558 46.1404ZM17.7392 46.5383C17.1509 46.5383 16.6861 47.0255 16.6861 47.6365C16.6861 47.9167 16.7701 48.1465 16.9439 48.3255C17.1177 48.505 17.3361 48.5942 17.6106 48.5942C18.2102 48.5942 18.6751 48.1071 18.6751 47.496C18.6751 46.958 18.2772 46.5378 17.7397 46.5378L17.7392 46.5383Z" fill="#23AFBD"/>
<path d="M21.6089 45.0924C21.4745 45.0701 21.3682 45.0592 21.2841 45.0592C20.9537 45.0592 20.7747 45.2216 20.7072 45.5744L20.5952 46.2016H21.2784L21.2053 46.5881H20.5273L20.0681 49.1933C19.9727 49.7142 19.6536 50 19.1437 50C19.0036 50 18.8579 49.9715 18.7012 49.9212L18.7629 49.5741C18.8693 49.6021 18.9813 49.6135 19.0877 49.6135C19.4295 49.6135 19.5919 49.4341 19.6532 49.0927L20.0957 46.5885H19.7092L19.7761 46.2021H20.1626L20.2913 45.4794C20.3863 44.9585 20.7115 44.6675 21.221 44.6675C21.3777 44.6675 21.5291 44.6955 21.6692 44.7458L21.6075 45.0929L21.6089 45.0924Z" fill="#23AFBD"/>
<path d="M23.4174 48.039C23.406 48.095 23.4003 48.1458 23.4003 48.1905C23.4003 48.4986 23.6244 48.605 24.0109 48.605C24.0503 48.605 24.1339 48.5993 24.2687 48.5936L24.2013 48.9635C24.095 48.9801 23.9943 48.9915 23.8879 48.9915C23.3557 48.9915 22.9692 48.7845 22.9692 48.2517C22.9692 48.19 22.9749 48.1174 22.9915 48.0333L23.2436 46.588H22.7954L22.8514 46.2015H23.3163L23.4449 45.4565H23.8765L23.7422 46.2015H24.5992L24.5318 46.588H23.6748L23.4169 48.039H23.4174Z" fill="#23AFBD"/>
<path d="M27.383 47.3392L27.1029 48.9303H26.6717L26.9576 47.3283C26.9747 47.222 26.9856 47.1489 26.9856 47.0985C26.9856 46.7453 26.7615 46.533 26.3859 46.533C25.9657 46.533 25.6518 46.7961 25.5792 47.2049L25.2768 48.9303H24.8452L25.5792 44.7288H26.0103L25.7136 46.4319C25.932 46.2358 26.1898 46.1404 26.4866 46.1404C27.0411 46.1404 27.4162 46.4988 27.4162 47.0368C27.4162 47.1151 27.4048 47.2163 27.3825 47.3392H27.383Z" fill="#23AFBD"/>
<path d="M28.4798 47.6976C28.5078 48.2521 28.872 48.594 29.4323 48.594C29.729 48.594 29.9978 48.4872 30.2727 48.2635L30.4911 48.5551C30.1944 48.8409 29.8022 48.9919 29.3934 48.9919C28.609 48.9919 28.0378 48.4316 28.0378 47.6529C28.0207 46.841 28.7158 46.1236 29.5168 46.1407C30.2114 46.1407 30.6934 46.6278 30.6934 47.351C30.6934 47.4739 30.6711 47.5917 30.626 47.698H28.4803L28.4798 47.6976ZM30.2556 47.3168C30.2499 46.8239 29.9641 46.5324 29.4935 46.5324C29.023 46.5324 28.6308 46.8405 28.5131 47.3168H30.2556Z" fill="#23AFBD"/>
</svg>
