<svg width="37" height="48" viewBox="0 0 37 48" fill="none" xmlns="http://www.w3.org/2000/svg">
<path d="M28.6604 32.3962C30.2641 30.9811 31.3019 28.8113 31.3962 26.5471C31.4906 24.283 30.6415 22.0188 29.0377 20.3207C27.434 18.6226 25.1698 17.6792 22.9056 17.6792C20.6415 17.6792 18.4717 18.5283 16.8679 20.132C13.849 19.1886 9.6981 19.3773 7.24527 20.5094C8.09433 20.8867 9.03772 21.0754 9.88678 21.2641C11.5849 21.5471 13.3773 21.5471 15.1698 21.2641C15.4528 21.1698 15.8302 21.1698 16.1132 21.0754C15.0755 22.3962 14.4151 24.0943 14.3207 25.7924C12.8113 25.132 10.9245 25.0377 9.2264 25.415C8.56602 25.6037 7.90565 25.7924 7.24527 26.1698C7.90565 26.5471 8.56602 26.7358 9.2264 26.9245C10.8302 27.3018 12.717 27.2075 14.3207 26.5471C14.4151 28.8113 15.3585 30.8867 16.9623 32.3962C18.566 33.9056 20.7358 34.6603 22.8113 34.3773C20.7358 34.1886 18.849 33.1509 17.6226 31.7358C16.3019 30.3207 15.6415 28.3396 15.7358 26.5471C15.8302 24.6603 16.5849 22.8679 18 21.6415C19.3207 20.415 21.1132 19.6603 22.9056 19.6603C24.6981 19.6603 26.4906 20.415 27.8113 21.6415C29.1321 22.8679 29.8868 24.7547 29.9811 26.5471C30.0755 28.4339 29.3207 30.3207 28.0943 31.7358C26.7736 33.1509 24.8868 34.0943 22.8113 34.283C24.8868 34.566 27.0566 33.8113 28.6604 32.3962Z" fill="#574948"/>
<path d="M31.7736 0.88678C26.9623 0.88678 22.2453 0.88678 17.434 0.88678C16.1132 0.88678 22.3396 0.88678 4.22641 0.88678C2.33962 0.88678 0.547167 2.49055 0.358488 4.37735C0.264148 4.84904 0.358488 5.2264 0.358488 5.60376C0.358488 5.79244 0.452827 13.6226 0.452827 13.3396L0.547167 22.1132V30.9811C0.547167 31.1698 0.641507 38.0566 0.641507 37.5849C0.641507 37.9623 0.641506 38.3396 0.735846 38.717C1.01886 40.4151 2.5283 41.6415 4.32075 41.6415H5.45283C11.2075 41.4528 13.1887 41.4528 18.6604 41.2641C15.7358 41.1698 12.8113 41.0755 9.88679 40.9811C9.79245 40.9811 4.22641 40.8868 4.41509 40.8868C4.13207 40.8868 3.75471 40.7924 3.4717 40.6981C2.90566 40.5094 2.33962 40.0377 2.0566 39.4717C1.86792 39.1887 1.77358 38.9056 1.77358 38.6226C1.77358 38.3396 1.77358 37.9623 1.77358 37.5849C1.77358 37.3962 1.86792 30.5094 1.86792 30.9811L1.96226 22.2075L2.0566 4.66036C2.15094 3.62263 3.18868 2.77357 4.22641 2.77357H31.7736C32.9057 2.77357 33.7547 3.62263 33.9434 4.66036V5.03772C33.9434 5.2264 34.0377 12.5849 34.0377 12.2075L34.1321 20.9811L34.4151 38.5283C34.3208 39.7547 33.1887 40.8868 31.8679 40.8868L27.434 40.9811C26.2075 40.9811 24.9811 41.0755 23.7547 41.0755C23.7547 40.8868 23.7547 40.7924 23.7547 40.6038C23.7547 38.5283 23.566 36.0755 22.8113 34.1887C22.0566 36.0755 21.8679 38.5283 21.8679 40.6038V41.1698C20.8302 41.1698 19.6981 41.2641 18.6604 41.2641C19.7924 41.2641 20.8302 41.3585 21.9623 41.3585C21.9623 42.2075 22.0566 43.0566 22.1509 43.8113C22.3396 44.849 22.5283 45.9811 22.9057 47.0189C23.283 45.9811 23.4717 44.849 23.6604 43.8113C23.7547 42.9623 23.8491 42.2075 23.8491 41.3585C25.0755 41.3585 26.3019 41.4528 27.5283 41.4528L31.9623 41.5472C33.6604 41.5472 35.1698 40.2264 35.4528 38.5283C35.5472 38.0566 35.4528 37.7736 35.5472 37.3962C35.5472 36.6415 35.6415 33.9056 35.6415 34.0943L35.7358 29.6604L35.8302 20.8868L35.9245 12.1132C35.9245 11.9245 36.0189 5.03772 36.0189 5.50942V4.94338C36.0189 4.7547 36.0189 4.47169 36.0189 4.28301C35.4528 2.39621 33.7547 0.981119 31.7736 0.88678Z" fill="#574948"/>
<path d="M21.2076 9.18868C22.717 9.09434 24.3208 8.81132 25.8302 8.43396C24.3208 8.0566 22.717 7.86792 21.2076 7.67924C18.1887 7.39623 15.1698 7.39623 11.9623 7.67924C10.4528 7.77358 8.84906 8.0566 7.33963 8.43396C8.84906 8.81132 10.4528 9 11.9623 9.18868C15.1698 9.4717 18.1887 9.4717 21.2076 9.18868Z" fill="#574948"/>
<path d="M23.3773 14.849C25.1698 14.7547 26.9623 14.4717 28.7547 14.0943C26.9623 13.7169 25.1698 13.5283 23.3773 13.3396C19.8868 13.0566 16.3962 13.0566 12.6226 13.3396C10.8302 13.4339 9.03772 13.7169 7.24527 14.0943C9.03772 14.4717 10.8302 14.6603 12.6226 14.849C16.3962 15.132 19.8868 15.132 23.3773 14.849Z" fill="#574948"/>
</svg>
